<?xml version="1.0" encoding="utf-8" standalone="no"?>
<!DOCTYPE svg PUBLIC "-//W3C//DTD SVG 1.1//EN"
  "http://www.w3.org/Graphics/SVG/1.1/DTD/svg11.dtd">
<!-- Created with matplotlib (https://matplotlib.org/) -->
<svg height="345.6pt" version="1.1" viewBox="0 0 460.8 345.6" width="460.8pt" xmlns="http://www.w3.org/2000/svg" xmlns:xlink="http://www.w3.org/1999/xlink">
 <defs>
  <style type="text/css">
*{stroke-linecap:butt;stroke-linejoin:round;}
  </style>
 </defs>
 <g id="figure_1">
  <g id="patch_1">
   <path d="M 0 345.6 
L 460.8 345.6 
L 460.8 0 
L 0 0 
z
" style="fill:#ffffff;"/>
  </g>
  <g id="axes_1">
   <g id="patch_2">
    <path d="M 57.6 307.584 
L 414.72 307.584 
L 414.72 41.472 
L 57.6 41.472 
z
" style="fill:#ffffff;"/>
   </g>
   <g id="matplotlib.axis_1">
    <g id="xtick_1">
     <g id="line2d_1">
      <defs>
       <path d="M 0 0 
L 0 3.5 
" id="m9f206f4ce8" style="stroke:#000000;stroke-width:0.8;"/>
      </defs>
      <g>
       <use style="stroke:#000000;stroke-width:0.8;" x="73.832727" xlink:href="#m9f206f4ce8" y="263.232"/>
      </g>
     </g>
    </g>
    <g id="xtick_2">
     <g id="line2d_2">
      <g>
       <use style="stroke:#000000;stroke-width:0.8;" x="114.824463" xlink:href="#m9f206f4ce8" y="263.232"/>
      </g>
     </g>
    </g>
    <g id="xtick_3">
     <g id="line2d_3">
      <g>
       <use style="stroke:#000000;stroke-width:0.8;" x="155.816198" xlink:href="#m9f206f4ce8" y="263.232"/>
      </g>
     </g>
    </g>
    <g id="xtick_4">
     <g id="line2d_4">
      <g>
       <use style="stroke:#000000;stroke-width:0.8;" x="196.807934" xlink:href="#m9f206f4ce8" y="263.232"/>
      </g>
     </g>
    </g>
    <g id="xtick_5">
     <g id="line2d_5">
      <g>
       <use style="stroke:#000000;stroke-width:0.8;" x="237.799669" xlink:href="#m9f206f4ce8" y="263.232"/>
      </g>
     </g>
    </g>
    <g id="xtick_6">
     <g id="line2d_6">
      <g>
       <use style="stroke:#000000;stroke-width:0.8;" x="278.791405" xlink:href="#m9f206f4ce8" y="263.232"/>
      </g>
     </g>
    </g>
    <g id="xtick_7">
     <g id="line2d_7">
      <g>
       <use style="stroke:#000000;stroke-width:0.8;" x="319.78314" xlink:href="#m9f206f4ce8" y="263.232"/>
      </g>
     </g>
    </g>
    <g id="xtick_8">
     <g id="line2d_8">
      <g>
       <use style="stroke:#000000;stroke-width:0.8;" x="360.774876" xlink:href="#m9f206f4ce8" y="263.232"/>
      </g>
     </g>
    </g>
    <g id="xtick_9">
     <g id="line2d_9">
      <g>
       <use style="stroke:#000000;stroke-width:0.8;" x="401.766612" xlink:href="#m9f206f4ce8" y="263.232"/>
      </g>
     </g>
    </g>
   </g>
   <g id="matplotlib.axis_2">
    <g id="ytick_1">
     <g id="line2d_10">
      <defs>
       <path d="M 0 0 
L -3.5 0 
" id="mfa42dc8386" style="stroke:#000000;stroke-width:0.8;"/>
      </defs>
      <g>
       <use style="stroke:#000000;stroke-width:0.8;" x="237.799669" xlink:href="#mfa42dc8386" y="307.584"/>
      </g>
     </g>
    </g>
    <g id="ytick_2">
     <g id="line2d_11">
      <g>
       <use style="stroke:#000000;stroke-width:0.8;" x="237.799669" xlink:href="#mfa42dc8386" y="263.232"/>
      </g>
     </g>
    </g>
    <g id="ytick_3">
     <g id="line2d_12">
      <g>
       <use style="stroke:#000000;stroke-width:0.8;" x="237.799669" xlink:href="#mfa42dc8386" y="218.88"/>
      </g>
     </g>
    </g>
    <g id="ytick_4">
     <g id="line2d_13">
      <g>
       <use style="stroke:#000000;stroke-width:0.8;" x="237.799669" xlink:href="#mfa42dc8386" y="174.528"/>
      </g>
     </g>
    </g>
    <g id="ytick_5">
     <g id="line2d_14">
      <g>
       <use style="stroke:#000000;stroke-width:0.8;" x="237.799669" xlink:href="#mfa42dc8386" y="130.176"/>
      </g>
     </g>
    </g>
    <g id="ytick_6">
     <g id="line2d_15">
      <g>
       <use style="stroke:#000000;stroke-width:0.8;" x="237.799669" xlink:href="#mfa42dc8386" y="85.824"/>
      </g>
     </g>
    </g>
    <g id="ytick_7">
     <g id="line2d_16">
      <g>
       <use style="stroke:#000000;stroke-width:0.8;" x="237.799669" xlink:href="#mfa42dc8386" y="41.472"/>
      </g>
     </g>
    </g>
   </g>
   <g id="line2d_17">
    <path clip-path="url(#pd1a1fb66f7)" d="M 57.6 263.232 
L 414.72 263.232 
" style="fill:none;stroke:#000000;stroke-linecap:square;stroke-width:2;"/>
   </g>
   <g id="line2d_18">
    <path clip-path="url(#pd1a1fb66f7)" d="M 237.799669 307.584 
L 237.799669 41.472 
" style="fill:none;stroke:#000000;stroke-linecap:square;stroke-width:2;"/>
   </g>
   <g id="line2d_19">
    <path clip-path="url(#pd1a1fb66f7)" d="M 319.78314 307.584 
L 319.78314 221.0976 
" style="fill:none;stroke:#000000;stroke-dasharray:5.55,2.4;stroke-dashoffset:0;stroke-width:1.5;"/>
   </g>
   <g id="line2d_20">
    <path clip-path="url(#pd1a1fb66f7)" d="M 155.816198 307.584 
L 155.816198 221.0976 
" style="fill:none;stroke:#000000;stroke-dasharray:5.55,2.4;stroke-dashoffset:0;stroke-width:1.5;"/>
   </g>
   <g id="patch_3">
    <path d="M 237.799669 307.584 
L 237.799669 41.472 
" style="fill:none;stroke:#000000;stroke-linecap:square;stroke-linejoin:miter;stroke-width:0.8;"/>
   </g>
   <g id="patch_4">
    <path d="M 414.72 307.584 
L 414.72 41.472 
" style="fill:none;"/>
   </g>
   <g id="patch_5">
    <path d="M 57.6 263.232 
L 414.72 263.232 
" style="fill:none;stroke:#000000;stroke-linecap:square;stroke-linejoin:miter;stroke-width:0.8;"/>
   </g>
   <g id="patch_6">
    <path d="M 57.6 41.472 
L 414.72 41.472 
" style="fill:none;"/>
   </g>
   <g id="text_1">
    <!-- V($\phi$) -->
    <defs>
     <path d="M 28.609375 0 
L 0.78125 72.90625 
L 11.078125 72.90625 
L 34.1875 11.53125 
L 57.328125 72.90625 
L 67.578125 72.90625 
L 39.796875 0 
z
" id="DejaVuSans-86"/>
     <path d="M 31 75.875 
Q 24.46875 64.65625 21.28125 53.65625 
Q 18.109375 42.671875 18.109375 31.390625 
Q 18.109375 20.125 21.3125 9.0625 
Q 24.515625 -2 31 -13.1875 
L 23.1875 -13.1875 
Q 15.875 -1.703125 12.234375 9.375 
Q 8.59375 20.453125 8.59375 31.390625 
Q 8.59375 42.28125 12.203125 53.3125 
Q 15.828125 64.359375 23.1875 75.875 
z
" id="DejaVuSans-40"/>
     <path d="M 46.734375 75.984375 
L 42.78125 55.8125 
Q 52.546875 55.8125 57.5625 48.34375 
Q 62.75 40.71875 60.15625 27.296875 
Q 57.515625 13.875 49.359375 6.25 
Q 41.453125 -1.21875 31.6875 -1.21875 
L 27.875 -20.796875 
L 18.953125 -20.796875 
L 22.75 -1.21875 
Q 13.03125 -1.21875 7.953125 6.25 
Q 2.78125 13.875 5.421875 27.296875 
Q 8.015625 40.71875 16.15625 48.34375 
Q 24.125 55.8125 33.84375 55.8125 
L 37.796875 75.984375 
z
M 33.25 6.78125 
Q 38.765625 6.78125 43.5 11.8125 
Q 48.6875 17.4375 50.6875 27.296875 
Q 52.640625 37.0625 49.515625 42.78125 
Q 46.734375 47.796875 41.21875 47.796875 
z
M 24.3125 6.78125 
L 32.28125 47.796875 
Q 26.8125 47.796875 22.078125 42.78125 
Q 16.75 37.0625 14.890625 27.296875 
Q 13.03125 17.4375 16.0625 11.8125 
Q 18.796875 6.78125 24.3125 6.78125 
z
" id="DejaVuSans-Oblique-981"/>
     <path d="M 8.015625 75.875 
L 15.828125 75.875 
Q 23.140625 64.359375 26.78125 53.3125 
Q 30.421875 42.28125 30.421875 31.390625 
Q 30.421875 20.453125 26.78125 9.375 
Q 23.140625 -1.703125 15.828125 -13.1875 
L 8.015625 -13.1875 
Q 14.5 -2 17.703125 9.0625 
Q 20.90625 20.125 20.90625 31.390625 
Q 20.90625 42.671875 17.703125 53.65625 
Q 14.5 64.65625 8.015625 75.875 
z
" id="DejaVuSans-41"/>
    </defs>
    <g transform="translate(245.998017 85.824)scale(0.25 -0.25)">
     <use transform="translate(0 0.015625)" xlink:href="#DejaVuSans-86"/>
     <use transform="translate(68.408203 0.015625)" xlink:href="#DejaVuSans-40"/>
     <use transform="translate(107.421875 0.015625)" xlink:href="#DejaVuSans-Oblique-981"/>
     <use transform="translate(173.388672 0.015625)" xlink:href="#DejaVuSans-41"/>
    </g>
   </g>
   <g id="text_2">
    <!-- $\phi$ -->
    <g transform="translate(368.973223 285.408)scale(0.25 -0.25)">
     <use transform="translate(0 0.015625)" xlink:href="#DejaVuSans-Oblique-981"/>
    </g>
   </g>
   <g id="text_3">
    <!-- $v$ -->
    <defs>
     <path d="M 7.171875 54.6875 
L 16.703125 54.6875 
L 24.703125 8.203125 
L 50.875 54.6875 
L 60.40625 54.6875 
L 29.296875 0 
L 17.1875 0 
z
" id="DejaVuSans-Oblique-118"/>
    </defs>
    <g transform="translate(314.864132 214.4448)scale(0.15 -0.15)">
     <use transform="translate(0 0.3125)" xlink:href="#DejaVuSans-Oblique-118"/>
    </g>
   </g>
   <g id="text_4">
    <!-- $-v$ -->
    <defs>
     <path d="M 10.59375 35.5 
L 73.1875 35.5 
L 73.1875 27.203125 
L 10.59375 27.203125 
z
" id="DejaVuSans-8722"/>
    </defs>
    <g transform="translate(145.978182 214.4448)scale(0.15 -0.15)">
     <use transform="translate(0 0.3125)" xlink:href="#DejaVuSans-8722"/>
     <use transform="translate(83.789062 0.3125)" xlink:href="#DejaVuSans-Oblique-118"/>
    </g>
   </g>
   <g id="line2d_21">
    <path clip-path="url(#pd1a1fb66f7)" d="M 73.832727 41.472 
L 77.112066 67.121578 
L 80.391405 90.90383 
L 83.670744 112.901357 
L 86.950083 133.195058 
L 90.229421 151.864128 
L 93.50876 168.986058 
L 96.788099 184.636637 
L 100.067438 198.88995 
L 103.346777 211.818381 
L 106.626116 223.492608 
L 109.905455 233.981608 
L 113.184793 243.352653 
L 116.464132 251.671314 
L 119.743471 259.001458 
L 123.02281 265.405248 
L 126.302149 270.943145 
L 129.581488 275.673907 
L 132.860826 279.654588 
L 136.140165 282.940539 
L 139.419504 285.585408 
L 142.698843 287.641141 
L 145.978182 289.157979 
L 149.257521 290.184462 
L 152.53686 290.767425 
L 155.816198 290.952 
L 159.095537 290.781617 
L 162.374876 290.298003 
L 165.654215 289.541181 
L 168.933554 288.54947 
L 172.212893 287.359488 
L 175.492231 286.006149 
L 178.77157 284.522663 
L 182.050909 282.940539 
L 185.330248 281.28958 
L 188.609587 279.597888 
L 191.888926 277.891862 
L 195.168264 276.196196 
L 198.447603 274.533883 
L 201.726942 272.926212 
L 205.006281 271.392768 
L 208.28562 269.951434 
L 211.564959 268.618391 
L 214.844298 267.408113 
L 218.123636 266.333376 
L 221.402975 265.405248 
L 224.682314 264.633097 
L 227.961653 264.024588 
L 231.240992 263.585681 
L 234.520331 263.320633 
L 237.799669 263.232 
L 241.079008 263.320633 
L 244.358347 263.585681 
L 247.637686 264.024588 
L 250.917025 264.633097 
L 254.196364 265.405248 
L 257.475702 266.333376 
L 260.755041 267.408113 
L 264.03438 268.618391 
L 267.313719 269.951434 
L 270.593058 271.392768 
L 273.872397 272.926212 
L 277.151736 274.533883 
L 280.431074 276.196196 
L 283.710413 277.891862 
L 286.989752 279.597888 
L 290.269091 281.28958 
L 293.54843 282.940539 
L 296.827769 284.522663 
L 300.107107 286.006149 
L 303.386446 287.359488 
L 306.665785 288.54947 
L 309.945124 289.541181 
L 313.224463 290.298003 
L 316.503802 290.781617 
L 319.78314 290.952 
L 323.062479 290.767425 
L 326.341818 290.184462 
L 329.621157 289.157979 
L 332.900496 287.641141 
L 336.179835 285.585408 
L 339.459174 282.940539 
L 342.738512 279.654588 
L 346.017851 275.673907 
L 349.29719 270.943145 
L 352.576529 265.405248 
L 355.855868 259.001458 
L 359.135207 251.671314 
L 362.414545 243.352653 
L 365.693884 233.981608 
L 368.973223 223.492608 
L 372.252562 211.818381 
L 375.531901 198.88995 
L 378.81124 184.636637 
L 382.090579 168.986058 
L 385.369917 151.864128 
L 388.649256 133.195058 
L 391.928595 112.901357 
L 395.207934 90.90383 
L 398.487273 67.121578 
" style="fill:none;stroke:#0000ff;stroke-linecap:square;stroke-width:4;"/>
   </g>
  </g>
 </g>
 <defs>
  <clipPath id="pd1a1fb66f7">
   <rect height="266.112" width="357.12" x="57.6" y="41.472"/>
  </clipPath>
 </defs>
</svg>
