<?xml version="1.0" encoding="utf-8" standalone="no"?>
<!DOCTYPE svg PUBLIC "-//W3C//DTD SVG 1.1//EN"
  "http://www.w3.org/Graphics/SVG/1.1/DTD/svg11.dtd">
<!-- Created with matplotlib (https://matplotlib.org/) -->
<svg height="345.6pt" version="1.1" viewBox="0 0 460.8 345.6" width="460.8pt" xmlns="http://www.w3.org/2000/svg" xmlns:xlink="http://www.w3.org/1999/xlink">
 <defs>
  <style type="text/css">
*{stroke-linecap:butt;stroke-linejoin:round;}
  </style>
 </defs>
 <g id="figure_1">
  <g id="patch_1">
   <path d="M 0 345.6 
L 460.8 345.6 
L 460.8 0 
L 0 0 
z
" style="fill:#ffffff;"/>
  </g>
  <g id="axes_1">
   <g id="patch_2">
    <path d="M 57.6 307.584 
L 414.72 307.584 
L 414.72 41.472 
L 57.6 41.472 
z
" style="fill:#ffffff;"/>
   </g>
   <g id="matplotlib.axis_1">
    <g id="xtick_1">
     <g id="line2d_1">
      <defs>
       <path d="M 0 0 
L 0 3.5 
" id="m9462378f15" style="stroke:#000000;stroke-width:0.8;"/>
      </defs>
      <g>
       <use style="stroke:#000000;stroke-width:0.8;" x="73.832727" xlink:href="#m9462378f15" y="263.232"/>
      </g>
     </g>
    </g>
    <g id="xtick_2">
     <g id="line2d_2">
      <g>
       <use style="stroke:#000000;stroke-width:0.8;" x="114.824463" xlink:href="#m9462378f15" y="263.232"/>
      </g>
     </g>
    </g>
    <g id="xtick_3">
     <g id="line2d_3">
      <g>
       <use style="stroke:#000000;stroke-width:0.8;" x="155.816198" xlink:href="#m9462378f15" y="263.232"/>
      </g>
     </g>
    </g>
    <g id="xtick_4">
     <g id="line2d_4">
      <g>
       <use style="stroke:#000000;stroke-width:0.8;" x="196.807934" xlink:href="#m9462378f15" y="263.232"/>
      </g>
     </g>
    </g>
    <g id="xtick_5">
     <g id="line2d_5">
      <g>
       <use style="stroke:#000000;stroke-width:0.8;" x="237.799669" xlink:href="#m9462378f15" y="263.232"/>
      </g>
     </g>
    </g>
    <g id="xtick_6">
     <g id="line2d_6">
      <g>
       <use style="stroke:#000000;stroke-width:0.8;" x="278.791405" xlink:href="#m9462378f15" y="263.232"/>
      </g>
     </g>
    </g>
    <g id="xtick_7">
     <g id="line2d_7">
      <g>
       <use style="stroke:#000000;stroke-width:0.8;" x="319.78314" xlink:href="#m9462378f15" y="263.232"/>
      </g>
     </g>
    </g>
    <g id="xtick_8">
     <g id="line2d_8">
      <g>
       <use style="stroke:#000000;stroke-width:0.8;" x="360.774876" xlink:href="#m9462378f15" y="263.232"/>
      </g>
     </g>
    </g>
    <g id="xtick_9">
     <g id="line2d_9">
      <g>
       <use style="stroke:#000000;stroke-width:0.8;" x="401.766612" xlink:href="#m9462378f15" y="263.232"/>
      </g>
     </g>
    </g>
   </g>
   <g id="matplotlib.axis_2">
    <g id="ytick_1">
     <g id="line2d_10">
      <defs>
       <path d="M 0 0 
L -3.5 0 
" id="m375d1b5304" style="stroke:#000000;stroke-width:0.8;"/>
      </defs>
      <g>
       <use style="stroke:#000000;stroke-width:0.8;" x="237.799669" xlink:href="#m375d1b5304" y="307.584"/>
      </g>
     </g>
    </g>
    <g id="ytick_2">
     <g id="line2d_11">
      <g>
       <use style="stroke:#000000;stroke-width:0.8;" x="237.799669" xlink:href="#m375d1b5304" y="263.232"/>
      </g>
     </g>
    </g>
    <g id="ytick_3">
     <g id="line2d_12">
      <g>
       <use style="stroke:#000000;stroke-width:0.8;" x="237.799669" xlink:href="#m375d1b5304" y="218.88"/>
      </g>
     </g>
    </g>
    <g id="ytick_4">
     <g id="line2d_13">
      <g>
       <use style="stroke:#000000;stroke-width:0.8;" x="237.799669" xlink:href="#m375d1b5304" y="174.528"/>
      </g>
     </g>
    </g>
    <g id="ytick_5">
     <g id="line2d_14">
      <g>
       <use style="stroke:#000000;stroke-width:0.8;" x="237.799669" xlink:href="#m375d1b5304" y="130.176"/>
      </g>
     </g>
    </g>
    <g id="ytick_6">
     <g id="line2d_15">
      <g>
       <use style="stroke:#000000;stroke-width:0.8;" x="237.799669" xlink:href="#m375d1b5304" y="85.824"/>
      </g>
     </g>
    </g>
    <g id="ytick_7">
     <g id="line2d_16">
      <g>
       <use style="stroke:#000000;stroke-width:0.8;" x="237.799669" xlink:href="#m375d1b5304" y="41.472"/>
      </g>
     </g>
    </g>
   </g>
   <g id="line2d_17">
    <path clip-path="url(#pde8d8c3a01)" d="M 57.6 263.232 
L 414.72 263.232 
" style="fill:none;stroke:#000000;stroke-linecap:square;stroke-width:2;"/>
   </g>
   <g id="line2d_18">
    <path clip-path="url(#pde8d8c3a01)" d="M 237.799669 307.584 
L 237.799669 41.472 
" style="fill:none;stroke:#000000;stroke-linecap:square;stroke-width:2;"/>
   </g>
   <g id="patch_3">
    <path d="M 237.799669 307.584 
L 237.799669 41.472 
" style="fill:none;stroke:#000000;stroke-linecap:square;stroke-linejoin:miter;stroke-width:0.8;"/>
   </g>
   <g id="patch_4">
    <path d="M 414.72 307.584 
L 414.72 41.472 
" style="fill:none;"/>
   </g>
   <g id="patch_5">
    <path d="M 57.6 263.232 
L 414.72 263.232 
" style="fill:none;stroke:#000000;stroke-linecap:square;stroke-linejoin:miter;stroke-width:0.8;"/>
   </g>
   <g id="patch_6">
    <path d="M 57.6 41.472 
L 414.72 41.472 
" style="fill:none;"/>
   </g>
   <g id="text_1">
    <!-- V($\phi$) -->
    <defs>
     <path d="M 28.609375 0 
L 0.78125 72.90625 
L 11.078125 72.90625 
L 34.1875 11.53125 
L 57.328125 72.90625 
L 67.578125 72.90625 
L 39.796875 0 
z
" id="DejaVuSans-86"/>
     <path d="M 31 75.875 
Q 24.46875 64.65625 21.28125 53.65625 
Q 18.109375 42.671875 18.109375 31.390625 
Q 18.109375 20.125 21.3125 9.0625 
Q 24.515625 -2 31 -13.1875 
L 23.1875 -13.1875 
Q 15.875 -1.703125 12.234375 9.375 
Q 8.59375 20.453125 8.59375 31.390625 
Q 8.59375 42.28125 12.203125 53.3125 
Q 15.828125 64.359375 23.1875 75.875 
z
" id="DejaVuSans-40"/>
     <path d="M 46.734375 75.984375 
L 42.78125 55.8125 
Q 52.546875 55.8125 57.5625 48.34375 
Q 62.75 40.71875 60.15625 27.296875 
Q 57.515625 13.875 49.359375 6.25 
Q 41.453125 -1.21875 31.6875 -1.21875 
L 27.875 -20.796875 
L 18.953125 -20.796875 
L 22.75 -1.21875 
Q 13.03125 -1.21875 7.953125 6.25 
Q 2.78125 13.875 5.421875 27.296875 
Q 8.015625 40.71875 16.15625 48.34375 
Q 24.125 55.8125 33.84375 55.8125 
L 37.796875 75.984375 
z
M 33.25 6.78125 
Q 38.765625 6.78125 43.5 11.8125 
Q 48.6875 17.4375 50.6875 27.296875 
Q 52.640625 37.0625 49.515625 42.78125 
Q 46.734375 47.796875 41.21875 47.796875 
z
M 24.3125 6.78125 
L 32.28125 47.796875 
Q 26.8125 47.796875 22.078125 42.78125 
Q 16.75 37.0625 14.890625 27.296875 
Q 13.03125 17.4375 16.0625 11.8125 
Q 18.796875 6.78125 24.3125 6.78125 
z
" id="DejaVuSans-Oblique-981"/>
     <path d="M 8.015625 75.875 
L 15.828125 75.875 
Q 23.140625 64.359375 26.78125 53.3125 
Q 30.421875 42.28125 30.421875 31.390625 
Q 30.421875 20.453125 26.78125 9.375 
Q 23.140625 -1.703125 15.828125 -13.1875 
L 8.015625 -13.1875 
Q 14.5 -2 17.703125 9.0625 
Q 20.90625 20.125 20.90625 31.390625 
Q 20.90625 42.671875 17.703125 53.65625 
Q 14.5 64.65625 8.015625 75.875 
z
" id="DejaVuSans-41"/>
    </defs>
    <g transform="translate(245.998017 85.824)scale(0.25 -0.25)">
     <use transform="translate(0 0.015625)" xlink:href="#DejaVuSans-86"/>
     <use transform="translate(68.408203 0.015625)" xlink:href="#DejaVuSans-40"/>
     <use transform="translate(107.421875 0.015625)" xlink:href="#DejaVuSans-Oblique-981"/>
     <use transform="translate(173.388672 0.015625)" xlink:href="#DejaVuSans-41"/>
    </g>
   </g>
   <g id="text_2">
    <!-- $\phi$ -->
    <g transform="translate(368.973223 285.408)scale(0.25 -0.25)">
     <use transform="translate(0 0.015625)" xlink:href="#DejaVuSans-Oblique-981"/>
    </g>
   </g>
   <g id="line2d_19">
    <path clip-path="url(#pde8d8c3a01)" d="M 114.977989 -1 
L 116.464132 8.799762 
L 119.743471 29.08069 
L 123.02281 48.080448 
L 126.302149 65.859497 
L 129.581488 82.476595 
L 132.860826 97.988796 
L 136.140165 112.451451 
L 139.419504 125.918208 
L 142.698843 138.441013 
L 145.978182 150.070107 
L 149.257521 160.85403 
L 152.53686 170.839617 
L 155.816198 180.072 
L 159.095537 188.594609 
L 162.374876 196.449171 
L 165.654215 203.675709 
L 168.933554 210.312542 
L 172.212893 216.396288 
L 175.492231 221.961861 
L 178.77157 227.042471 
L 182.050909 231.669627 
L 185.330248 235.873132 
L 188.609587 239.681088 
L 191.888926 243.119894 
L 195.168264 246.214244 
L 198.447603 248.987131 
L 201.726942 251.459844 
L 205.006281 253.651968 
L 208.28562 255.581386 
L 211.564959 257.264279 
L 214.844298 258.715121 
L 218.123636 259.946688 
L 221.402975 260.970048 
L 224.682314 261.794569 
L 227.961653 262.427916 
L 231.240992 262.876049 
L 234.520331 263.143225 
L 237.799669 263.232 
L 241.079008 263.143225 
L 244.358347 262.876049 
L 247.637686 262.427916 
L 250.917025 261.794569 
L 254.196364 260.970048 
L 257.475702 259.946688 
L 260.755041 258.715121 
L 264.03438 257.264279 
L 267.313719 255.581386 
L 270.593058 253.651968 
L 273.872397 251.459844 
L 277.151736 248.987131 
L 280.431074 246.214244 
L 283.710413 243.119894 
L 286.989752 239.681088 
L 290.269091 235.873132 
L 293.54843 231.669627 
L 296.827769 227.042471 
L 300.107107 221.961861 
L 303.386446 216.396288 
L 306.665785 210.312542 
L 309.945124 203.675709 
L 313.224463 196.449171 
L 316.503802 188.594609 
L 319.78314 180.072 
L 323.062479 170.839617 
L 326.341818 160.85403 
L 329.621157 150.070107 
L 332.900496 138.441013 
L 336.179835 125.918208 
L 339.459174 112.451451 
L 342.738512 97.988796 
L 346.017851 82.476595 
L 349.29719 65.859497 
L 352.576529 48.080448 
L 355.855868 29.08069 
L 359.135207 8.799762 
L 360.621349 -1 
" style="fill:none;stroke:#0000ff;stroke-linecap:square;stroke-width:4;"/>
   </g>
  </g>
 </g>
 <defs>
  <clipPath id="pde8d8c3a01">
   <rect height="266.112" width="357.12" x="57.6" y="41.472"/>
  </clipPath>
 </defs>
</svg>
